<?xml version="1.0" encoding="utf-8"?>
<!-- Generator: Adobe Illustrator 19.0.1, SVG Export Plug-In . SVG Version: 6.00 Build 0)  -->
<svg version="1.1" id="Isolation_Mode" xmlns="http://www.w3.org/2000/svg" xmlns:xlink="http://www.w3.org/1999/xlink" x="0px"
	 y="0px" viewBox="0 0 70 79" style="enable-background:new 0 0 70 79;" xml:space="preserve">
<style type="text/css">
	.st0{fill:#888888;}
</style>
<g>
	<path class="st0" d="M31,13.9c-12,0-21.8,9.8-21.8,21.8S19,57.5,31,57.5c4.6,0,9.1-1.5,12.9-4.2l0.7-0.5l11.6,11.6c1,1,2.8,1,3.8,0
		c0.5-0.5,0.8-1.2,0.8-1.9S60.5,61,60,60.5L48.3,48.8l0.5-0.7c2.6-3.7,3.9-8,3.9-12.4C52.7,23.7,43,13.9,31,13.9z M31,52.1
		c-9,0-16.4-7.4-16.4-16.4S21.9,19.3,31,19.3c9,0,16.4,7.4,16.4,16.4S40,52.1,31,52.1z"/>
	<path class="st0" d="M58.1,66.1C58.1,66.1,58.1,66.1,58.1,66.1c-1,0-2-0.4-2.6-1.1l-11-11c-4,2.9-8.6,4.5-13.5,4.5
		c-12.6,0-22.8-10.2-22.8-22.8S18.4,12.9,31,12.9c12.6,0,22.8,10.2,22.8,22.8c0,4.7-1.4,9.2-4.1,13l11.1,11.1
		c0.7,0.7,1.1,1.6,1.1,2.6s-0.4,1.9-1.1,2.6C60.1,65.7,59.1,66.1,58.1,66.1z M44.7,51.3L57,63.5c0.3,0.3,0.7,0.4,1.1,0.4h0
		c0.4,0,0.9-0.2,1.1-0.4c0.3-0.3,0.5-0.7,0.5-1.1c0-0.4-0.2-0.8-0.5-1.1L46.9,49l1-1.5c2.4-3.5,3.7-7.6,3.7-11.8
		C51.7,24.3,42.4,15,31,15c-11.4,0-20.7,9.3-20.7,20.7S19.6,56.4,31,56.4c4.4,0,8.6-1.4,12.2-4L44.7,51.3z M31,53.2
		c-9.6,0-17.5-7.8-17.5-17.5S21.3,18.2,31,18.2c9.6,0,17.5,7.8,17.5,17.5S40.6,53.2,31,53.2z M31,20.4c-8.5,0-15.3,6.9-15.3,15.3
		S22.5,51,31,51c8.5,0,15.3-6.9,15.3-15.3S39.4,20.4,31,20.4z"/>
</g>
</svg>
